<svg width="777px" height="589px" viewBox="0 0 777 589" version="1.1" xmlns="http://www.w3.org/2000/svg" style="width: auto; height: 191px;">
  <title>corgi</title>
  <g id="Page-1" stroke="none" stroke-width="1" fill="none" fill-rule="evenodd">
    <g id="corgi" transform="translate(388.813099, 294.452194) scale(-1, 1) translate(-388.813099, -294.452194) translate(0.813099, 0.452194)">
      <path d="M156.813099,464.547806 C131.301345,487.182824 120.25853,514.886003 123.684654,547.657345 C134.16848,560.69189 155.118755,557.503413 144.15219,586.380546 C129.107867,586.603559 110.710024,586.603559 88.9586595,586.380546 C77.6020923,544.560505 72.236566,521.041565 72.8620807,515.823725 C73.3123299,512.067894 82.2488668,497.335624 111.048761,481.275328 C118.522592,477.107538 133.777371,471.531697 156.813099,464.547806 Z" id="Path-4" fill="#0084B4"></path>
      <path d="M636.911767,482.547806 C625.531711,490.466093 614.260554,497.30596 603.098296,503.067407 C592.894331,508.334226 582.799266,512.522625 572.813099,515.632603 L572.813099,524.25874 C577.283529,534.330845 581.076502,544.340407 584.192016,554.287429 C587.684107,565.436763 590.49874,576.523555 592.635915,587.547806 C628.049293,587.547806 645.755982,587.547806 645.755982,587.547806 C652.199515,575.067256 652.48552,565.480124 646.613998,558.78641 C637.806714,548.745839 625.724319,551.553681 627.272318,536.702283 C628.820317,521.850884 635.564423,501.973704 635.564423,497.110359 C635.564423,493.86813 636.013538,489.013945 636.911767,482.547806 Z" id="Path-2" fill="#0084B4"></path>
      <path d="M138.315772,247.683899 C177.889791,244.04146 246.384551,261.970601 371.803992,247.683899 C423.843328,241.756027 475.340684,249.200878 501.367134,194.102298 C527.393585,139.003717 523.75611,134.683586 563.278152,90.6134312 C564.093038,57.6200503 547.848086,7.86206126 563.278152,1.54179765 C577.048389,-4.09858808 604.559557,14.2430413 617.455969,57.1458191 C625.114949,61.9492065 623.076117,64.8730536 628.814914,66.5296483 C642.615386,70.5133726 651.991875,63.0610473 670.472636,75.2469412 C677.189163,79.6757025 682.835953,86.0383728 686.497666,92.0827132 C690.499727,98.6888625 690.499727,105.431309 701.167262,108.757688 C734.776827,119.23791 764.809503,114.676239 771.3887,122.789355 C784.610067,139.093243 766.197788,156.855359 742.598495,177.965009 C721.933506,196.449914 690.084492,179.322072 682.860136,201.978464 C660.215313,272.995175 692.759241,304.103368 682.860136,366.201734 C678.920825,390.913541 679.832491,413.957299 673.632112,426.032419 C664.684318,443.458079 657.573251,457.760615 636.056316,482.863925 C607.684014,503.611186 576.408265,515.117113 573.192122,515.395811 C569.198769,534.260592 569.665933,527.138485 569.198769,542.994927 C567.621587,549.802388 590.302842,554.520414 590.302842,559.456383 C593.594957,560.481478 596.087607,583.079651 586.835417,587.528153 C562.004919,587.603744 540.969123,587.429923 534.200227,587.528153 C521.630068,566.980485 514.06826,531.668997 497.331698,518.418769 C493.099655,515.486582 450.43242,535.45364 383.177576,526.24224 C315.922733,517.030839 290.179804,507.111562 266.893982,497.163567 C246.202328,488.323834 241.106659,480.273331 193.391476,468.078657 C181.013125,464.915094 166.080552,464.117799 155.708967,465.911757 C145.337382,467.705716 132.719093,473.005766 119.445193,478.930003 C98.6156183,488.22639 80.1375046,502.835069 82.2852534,502.835069 C83.640437,502.835069 63.1961489,518.395788 67.7037741,547.118713 C69.013388,555.463671 81.2173359,555.39405 85.4075978,560.226949 C89.5978597,565.059848 92.1109788,584.449732 83.545646,587.528153 C56.6804564,587.616716 26.1184742,587.270451 20.7268582,587.528153 C8.89609648,551.180673 18.1636499,514.379875 14.0603859,509.726877 C0.0211568567,487.464633 2.71574251,457.093091 1.10177083,436.224919 C-1.15887257,406.995476 10.0466152,380.700515 28.099615,330.916453 C44.3137983,286.203224 80.339998,253.020057 138.315772,247.683899 Z" id="Path" fill="#00ACED"></path>
    </g>
  </g>
</svg>